<svg width="30" height="30" viewBox="0 0 30 30" fill="none" xmlns="http://www.w3.org/2000/svg">
<g clip-path="url(#clip0_186_4)">
<path d="M22.0165 19.3949C23.832 16.9175 24.6452 13.8459 24.2933 10.7946C23.9414 7.74333 22.4504 4.93745 20.1185 2.93831C17.7867 0.939171 14.786 -0.105799 11.7168 0.0124631C8.64757 0.130725 5.73619 1.4035 3.5651 3.57615C1.394 5.74879 0.123313 8.66109 0.00724741 11.7304C-0.108819 14.7997 0.938298 17.7996 2.93911 20.13C4.93992 22.4604 7.74686 23.9494 10.7984 24.2992C13.8499 24.6489 16.9209 23.8335 19.3971 22.0162H19.3952C19.4502 22.0912 19.5115 22.1631 19.579 22.2318L26.7977 29.4506C27.1493 29.8024 27.6262 30.0001 28.1236 30.0003C28.621 30.0005 29.0981 29.8031 29.4499 29.4515C29.8017 29.0999 29.9995 28.623 29.9997 28.1256C29.9998 27.6282 29.8024 27.1511 29.4508 26.7993L22.2321 19.5806C22.1651 19.5127 22.093 19.4519 22.0165 19.3949ZM22.5002 12.1874C22.5002 13.5417 22.2335 14.8827 21.7152 16.1339C21.197 17.385 20.4374 18.5219 19.4798 19.4795C18.5222 20.4371 17.3853 21.1967 16.1341 21.715C14.883 22.2332 13.542 22.4999 12.1877 22.4999C10.8335 22.4999 9.49247 22.2332 8.2413 21.715C6.99013 21.1967 5.85328 20.4371 4.89568 19.4795C3.93808 18.5219 3.17846 17.385 2.66021 16.1339C2.14196 14.8827 1.87522 13.5417 1.87522 12.1874C1.87522 9.4524 2.96171 6.82937 4.89568 4.89541C6.82965 2.96144 9.45267 1.87494 12.1877 1.87494C14.9228 1.87494 17.5458 2.96144 19.4798 4.89541C21.4137 6.82937 22.5002 9.4524 22.5002 12.1874Z" fill="#96C5F6"/>
</g>
<defs>
<clipPath id="clip0_186_4">
<rect width="30" height="30" fill="white"/>
</clipPath>
</defs>
</svg>
